<svg xmlns="http://www.w3.org/2000/svg" viewBox="0 0 32 32" fill="none">
  <rect width="32" height="32" rx="8" fill="#0072CE"/>
  <path d="M10 8h8a2 2 0 012 2v14a1 1 0 01-1 1H9a1 1 0 01-1-1V10a2 2 0 012-2z" fill="white"/>
  <rect x="11" y="10" width="6" height="4" rx="0.5" fill="#0072CE"/>
  <circle cx="14" cy="19" r="2" fill="#0072CE"/>
  <path d="M22 12h1a2 2 0 012 2v4a1 1 0 01-1 1h-1" stroke="white" stroke-width="1.5" stroke-linecap="round"/>
  <path d="M24 14v3" stroke="white" stroke-width="1.5" stroke-linecap="round"/>
  <rect x="22" y="11" width="3" height="2" rx="0.5" fill="white"/>
</svg>
